<?xml version="1.0" standalone="no"?>
<?xml-stylesheet type="text/css" href="loading-spokes.css"?>
<!DOCTYPE svg PUBLIC "-//W3C//DTD SVG 1.1//EN" "http://www.w3.org/Graphics/SVG/1.1/DTD/svg11.dtd">
<svg id="loading" xmlns="http://www.w3.org/2000/svg" viewBox="0 0 32 32" width="32" height="32" fill="white">
  <path opacity=".1" d="M14 0 H18 V8 H14 z" transform="rotate(0 16 16)"></path>
  <path opacity=".1" d="M14 0 H18 V8 H14 z" transform="rotate(45 16 16)"></path>
  <path opacity=".1" d="M14 0 H18 V8 H14 z" transform="rotate(90 16 16)"></path>
  <path opacity=".1" d="M14 0 H18 V8 H14 z" transform="rotate(135 16 16)"></path>
  <path opacity=".1" d="M14 0 H18 V8 H14 z" transform="rotate(180 16 16)"></path>
  <path opacity=".1" d="M14 0 H18 V8 H14 z" transform="rotate(225 16 16)"></path>
  <path opacity=".1" d="M14 0 H18 V8 H14 z" transform="rotate(270 16 16)"></path>
  <path opacity=".1" d="M14 0 H18 V8 H14 z" transform="rotate(315 16 16)"></path>
</svg>
